Coordinates
version=1
nRows=15
nColumns=19
inDegrees=yes

Units are S.I. units (second, meters, Newtons, ...)
If the header above contains a line with 'inDegrees', this indicates whether rotational values are in degrees (yes) or radians (no).

endheader
time	pelvis_tilt	pelvis_list	pelvis_rotation	pelvis_tx	pelvis_ty	pelvis_tz	hip_flexion_r	hip_adduction_r	hip_rotation_r	knee_angle_r	knee_angle_r_beta	ankle_angle_r	hip_flexion_l	hip_adduction_l	hip_rotation_l	knee_angle_l	knee_angle_l_beta	ankle_angle_l
     13.41333333	    -11.50195188	      6.92316610	      7.01170511	      2.27236299	      0.93074490	      1.02606018	     -9.92091076	    -11.77046991	    -20.49726448	     66.18991253	      1.15523191	    -15.49674844	     34.21919341	     12.78351658	     -2.58947672	     10.59257884	      0.18487538	      8.50469377
     13.42000000	    -11.16028013	      7.35854487	      7.60961013	      2.27169225	      0.92692979	      1.02515238	     -8.91352509	    -12.85377110	    -20.87952237	     70.19796145	      1.22518556	    -15.05248021	     34.35872395	     13.21540251	     -3.44313547	     14.14295632	      0.24684115	      8.13170024
     13.42666667	    -12.04309627	      6.95627946	      8.24598668	      2.27016834	      0.92139125	      1.02437341	     -6.02812503	    -13.04357794	    -20.50826198	     74.39850463	      1.29849886	    -14.66583855	     36.35803312	     12.82836751	     -4.35898138	     18.97765813	      0.33122262	      7.95281352
     13.43333333	    -12.28297157	      6.81357854	      8.82369850	      2.26874570	      0.91628547	      1.02392598	     -3.80713257	    -13.41787528	    -20.14258860	     78.37907926	      1.36797300	    -14.37264737	     37.48342799	     12.55556088	     -5.19922388	     23.76435416	      0.41476622	      7.94381966
     13.44000000	    -12.36939665	      6.63468649	      9.31888542	      2.26719189	      0.91133180	      1.02380499	     -1.56210299	    -13.68047655	    -19.57050094	     82.17997505	      1.43431114	    -14.13876218	     38.27593578	     12.16090292	     -5.84548950	     28.42781297	      0.49615894	      8.22322223
     13.44666667	    -12.33585380	      6.43226364	      9.74321879	      2.26546485	      0.90669363	      1.02393103	      0.75129313	    -13.82404563	    -18.79684109	     85.77990907	      1.49714185	    -13.95304930	     38.67433708	     11.71524049	     -6.18160487	     32.72480460	      0.57115559	      8.87004494
     13.45333333	    -12.17467297	      6.23443223	     10.11988464	      2.26355719	      0.90259152	      1.02421980	      3.08776376	    -13.92184383	    -17.92100581	     89.12460299	      1.55551777	    -13.82577894	     38.62595630	     11.29399984	     -6.19573380	     36.54568783	      0.63784258	      9.99640177
     13.46000000	    -11.97296251	      6.03957549	     10.49271258	      2.26141820	      0.89904404	      1.02451061	      5.53105157	    -14.00068549	    -16.99991452	     92.21052815	      1.60937732	    -13.67155444	     38.20030417	     10.94507633	     -5.90144007	     39.81256183	      0.69486029	     11.56115720
     13.46666667	    -11.70259107	      5.84382486	     10.82836497	      2.25908298	      0.89626237	      1.02482538	      8.04283310	    -14.04215800	    -16.01708755	     94.97648325	      1.65765234	    -13.47067905	     37.35298857	     10.63585725	     -5.36970726	     42.47920773	      0.74140204	     13.52662623
     13.47333333	    -11.20376479	      5.70491882	     11.10939633	      2.25667450	      0.89452978	      1.02514730	     10.39274095	    -14.08783039	    -15.02006966	     97.36325976	      1.69930945	    -13.05983509	     35.87599727	     10.38135025	     -4.65191172	     44.48228946	      0.77636241	     15.78901205
     13.48000000	    -11.05961759	      5.43456980	     11.36201809	      2.25417551	      0.89319997	      1.02534262	     13.27069959	    -14.04630691	    -13.97790661	     99.41883495	      1.73518601	    -12.75622847	     34.45155731	     10.08702187	     -3.75825563	     45.87811532	      0.80072417	     18.25228558
     13.48666667	    -10.53169556	      5.27971128	     11.61563859	      2.25191769	      0.89322199	      1.02532371	     15.65444159	    -14.13339470	    -13.12671042	    100.96666178	      1.76220068	    -12.29763940	     32.18129533	      9.90261888	     -2.65989718	     46.53339825	      0.81216101	     20.78674256
     13.49333333	    -10.16550564	      5.01040917	     11.81398561	      2.24982198	      0.89388606	      1.02535731	     18.25966818	    -13.95402489	    -12.18103768	    102.10736077	      1.78210964	    -11.68726537	     29.77372051	      9.56716552	     -1.54763445	     46.58597841	      0.81307871	     23.07144851
     13.50000000	     -9.97774416	      4.61648235	     11.77965374	      2.24807169	      0.89515502	      1.02546144	     21.10078505	    -13.60877961	    -11.17758709	    102.82787616	      1.79468500	    -10.81189322	     27.26795750	      8.98415983	     -0.63339811	     46.04454696	      0.80362895	     25.16707053
     13.50666667	     -9.91636046	      4.13768249	     11.66410192	      2.24670233	      0.89707525	      1.02544704	     24.00023801	    -13.13391218	    -10.25103885	    103.10602193	      1.79953956	     -9.89088517	     24.61506670	      8.32142049	      0.34024176	     44.92152688	      0.78402855	     26.75088198
